<svg width="28" height="28" viewBox="0 0 28 28" fill="none" xmlns="http://www.w3.org/2000/svg">
<path d="M14.0001 0.666656C6.63341 0.666656 0.666748 6.63332 0.666748 14C0.666748 21.3667 6.63341 27.3333 14.0001 27.3333C21.3667 27.3333 27.3334 21.3667 27.3334 14C27.3334 6.63332 21.3667 0.666656 14.0001 0.666656ZM14.0001 4.66666C16.2067 4.66666 18.0001 6.45999 18.0001 8.66666C18.0001 10.88 16.2067 12.6667 14.0001 12.6667C11.7934 12.6667 10.0001 10.88 10.0001 8.66666C10.0001 6.45999 11.7934 4.66666 14.0001 4.66666ZM14.0001 23.6C10.6601 23.6 7.72675 21.8933 6.00008 19.3067C6.03341 16.66 11.3401 15.2 14.0001 15.2C16.6601 15.2 21.9601 16.66 22.0001 19.3067C20.2734 21.8933 17.3401 23.6 14.0001 23.6Z" fill="white"/>
</svg>
