<svg width="25" height="26" viewBox="0 0 25 26" fill="none" xmlns="http://www.w3.org/2000/svg">
<path d="M2.61036 25.5C2.15654 25.5 1.70521 25.375 1.30595 25.1275C0.946803 24.9028 0.650396 24.5896 0.444723 24.2173C0.23905 23.845 0.130902 23.4261 0.130493 23V2.99998C0.130493 2.13248 0.576869 1.32748 1.30595 0.872479C1.66589 0.649382 2.0762 0.522234 2.4983 0.502992C2.92039 0.483749 3.34041 0.573043 3.71886 0.762479L23.5578 10.7625C23.9697 10.9705 24.3161 11.2899 24.5581 11.6851C24.8002 12.0803 24.9284 12.5355 24.9284 13C24.9284 13.4644 24.8002 13.9197 24.5581 14.3149C24.3161 14.71 23.9697 15.0295 23.5578 15.2375L3.71886 25.2375C3.37168 25.4125 2.9873 25.5 2.61036 25.5Z" fill="white"/>
</svg>
